<svg width="8" height="13" viewBox="0 0 8 13" fill="none" xmlns="http://www.w3.org/2000/svg">
<path d="M0.683594 6.37935C0.683594 6.1471 0.771911 5.949 0.955338 5.77139L6.25435 0.559319C6.39701 0.409038 6.58723 0.333896 6.80463 0.333896C7.24621 0.333896 7.59268 0.675447 7.59268 1.12629C7.59268 1.34489 7.50437 1.54299 7.35491 1.69327L2.57901 6.37935L7.35491 11.0654C7.50437 11.2225 7.59268 11.4206 7.59268 11.6392C7.59268 12.0833 7.24621 12.4248 6.80463 12.4248C6.58723 12.4248 6.39701 12.3497 6.25435 12.1994L0.955338 6.98731C0.771911 6.8097 0.690387 6.61161 0.683594 6.37935Z" fill="#0B5AA5"/>
</svg>
