<svg width="8" height="13" viewBox="0 0 8 13" fill="none" xmlns="http://www.w3.org/2000/svg">
<path d="M7.31641 6.38627C7.31641 6.61853 7.22809 6.81663 7.04466 6.99424L1.74565 12.2063C1.60299 12.3566 1.41277 12.4317 1.19537 12.4317C0.753788 12.4317 0.407314 12.0902 0.407314 11.6393C0.407314 11.4207 0.495631 11.2226 0.64509 11.0724L5.42099 6.38627L0.645091 1.70019C0.495632 1.54308 0.407315 1.34498 0.407315 1.12639C0.407315 0.682371 0.753789 0.34082 1.19537 0.34082C1.41277 0.34082 1.60299 0.415961 1.74565 0.566244L7.04466 5.77831C7.22809 5.95592 7.30961 6.15402 7.31641 6.38627Z" fill="#0B5AA5"/>
</svg>
